<svg aria-hidden="true" style="position: absolute; width: 0; height: 0; overflow: hidden;" version="1.1" xmlns="http://www.w3.org/2000/svg" xmlns:xlink="http://www.w3.org/1999/xlink">
<defs>
<symbol id="icon-outflow" viewBox="0 0 24 24">
<path d="M9 5.016v1.969h6.609l-11.625 11.625 1.406 1.406 11.625-11.625v6.609h1.969v-9.984h-9.984z"></path>
</symbol>
<symbol id="icon-inflow" viewBox="0 0 24 24">
<path d="M15 18.984v-1.969h-6.609l11.625-11.625-1.406-1.406-11.625 11.625v-6.609h-1.969v9.984h9.984z"></path>
</symbol>
<symbol id="icon-receipt" viewBox="0 0 24 24">
<path d="M3 21.984v-19.969l1.5 1.5 1.5-1.5 1.5 1.5 1.5-1.5 1.5 1.5 1.5-1.5 1.5 1.5 1.5-1.5 1.5 1.5 1.5-1.5 1.5 1.5 1.5-1.5v19.969l-1.5-1.5-1.5 1.5-1.5-1.5-1.5 1.5-1.5-1.5-1.5 1.5-1.5-1.5-1.5 1.5-1.5-1.5-1.5 1.5-1.5-1.5zM18 9v-2.016h-12v2.016h12zM18 12.984v-1.969h-12v1.969h12zM18 17.016v-2.016h-12v2.016h12z"></path>
</symbol>
<symbol id="icon-cog" viewBox="0 0 48 48">
<path d="M21 24.5c0-1.38 1.12-2.5 2.5-2.5s2.5 1.12 2.5 2.5-1.12 2.5-2.5 2.5-2.5-1.12-2.5-2.5zM23.5 18c-3.59 0-6.5 2.91-6.5 6.5s2.91 6.5 6.5 6.5 6.5-2.91 6.5-6.5-2.91-6.5-6.5-6.5zM6.66 29.28c0.38 1.35 0.92 2.63 1.6 3.819l-3 3.28c-0.859 0.86-0.859 2.25 0 3.11l3.25 3.25c0.86 0.859 2.25 0.859 3.11 0l3.28-3c1.189 0.68 2.47 1.22 3.819 1.6l0.281 4.461c0 1.22 0.98 2.2 2.2 2.2h4.6c1.22 0 2.2-0.98 2.2-2.2l0.279-4.46c1.351-0.38 2.631-0.92 3.82-1.6l3.28 3c0.86 0.859 2.25 0.859 3.11 0l3.25-3.25c0.859-0.86 0.859-2.25 0-3.11l-3-3.28c0.68-1.189 1.22-2.47 1.6-3.819l4.461-0.281c1.22 0 2.2-0.98 2.2-2.2v-4.6c0-1.22-0.98-2.2-2.2-2.2l-4.46-0.28c-0.38-1.35-0.92-2.63-1.6-3.82l3-3.28c0.859-0.86 0.859-2.25 0-3.11l-3.25-3.25c-0.86-0.86-2.25-0.86-3.11 0l-3.28 3c-1.189-0.68-2.47-1.22-3.82-1.6l-0.28-4.46c0-1.22-0.98-2.2-2.2-2.2h-4.6c-1.22 0-2.2 0.98-2.2 2.2l-0.28 4.46c-1.35 0.38-2.63 0.92-3.819 1.6l-3.28-3c-0.86-0.86-2.25-0.86-3.11 0l-3.251 3.25c-0.859 0.86-0.859 2.25 0 3.11l3 3.28c-0.68 1.19-1.22 2.47-1.6 3.82l-4.46 0.28c-1.22 0-2.2 0.98-2.2 2.2v4.6c0 1.22 0.98 2.2 2.2 2.2l4.46 0.28zM23.5 14c5.8 0 10.5 4.7 10.5 10.5s-4.7 10.5-10.5 10.5-10.5-4.7-10.5-10.5 4.7-10.5 10.5-10.5z"></path>
</symbol>
<symbol id="icon-checkered-flag" viewBox="0 0 32 32">
<path d="M19 5.813v3.98c3.024 0.618 5-0.39 5-0.39l0.018-0.014v4.086h-0.018c-0 0-2.112 0.843-5 0.324v4.004c-0.768-0.157-1.604-0.417-2.491-0.825-0.855-0.392-1.705-0.636-2.509-0.778v-3.999c-3.039-0.626-5 0.368-5 0.368v-4.157c0-0 2.228-0.727 5-0.232v-3.952c0.752 0.153 1.571 0.405 2.443 0.794 0.893 0.399 1.755 0.647 2.558 0.791zM8 11.994v17h1v-11.455c1.377-0.495 4.081-1.034 7.5 0.455 5.023 2.187 8.5 0 8.5 0v-14c0 0-3.476 2.236-8.5 0s-8.5 0-8.5 0v8zM14 8.201v0 0c0.75 0.154 1.566 0.408 2.434 0.798 0.896 0.404 1.761 0.654 2.566 0.799v3.995c-0.77-0.157-1.609-0.421-2.5-0.833-0.852-0.394-1.699-0.639-2.5-0.782v-3.978z"></path>
</symbol>
<symbol id="icon-checkered-flag1" viewBox="0 0 32 32">
<path d="M24.018 17.417c0 0-1.806 0.915-4.609 0.46-0.194-0.032-0.474-0.097-0.408-0.083v-3.995c-0.805-0.145-1.67-0.395-2.566-0.799-0.868-0.391-1.684-0.644-2.434-0.798v3.978c0.104 0.018-0.134-0.005-0.364-0.037-2.602-0.369-4.636 0.29-4.636 0.29v-4.020c0-0 2.228-0.727 5-0.232v-3.978c-3.039-0.626-5 0.368-5 0.368v-3.975c0 0 1.96-0.986 5-0.366v3.952c0.801 0.143 1.648 0.388 2.5 0.782 0.891 0.412 1.73 0.675 2.5 0.833v-3.98c2.898 0.52 5.018-0.319 5.018-0.319v4.040c-0.011-0.038-0.018-0.059-0.018-0.059s-2.112 0.843-5 0.324v3.995c0.71 0.145 1.361 0.201 1.944 0.201 1.899 0 3.056-0.591 3.056-0.591l0.018 4.013zM8 28.994h1v-11.455c1.377-0.495 4.081-1.034 7.5 0.455 5.023 2.187 8.5 0 8.5 0v-14c0 0-3.476 2.236-8.5 0s-8.5 0-8.5 0v25z"></path>
</symbol>
<symbol id="icon-loader" viewBox="0 0 24 24">
<path d="M11 2v4c0 0.552 0.448 1 1 1s1-0.448 1-1v-4c0-0.552-0.448-1-1-1s-1 0.448-1 1zM11 18v4c0 0.552 0.448 1 1 1s1-0.448 1-1v-4c0-0.552-0.448-1-1-1s-1 0.448-1 1zM4.223 5.637l2.83 2.83c0.391 0.391 1.024 0.391 1.414 0s0.391-1.024 0-1.414l-2.83-2.83c-0.391-0.391-1.024-0.391-1.414 0s-0.391 1.024 0 1.414zM15.533 16.947l2.83 2.83c0.391 0.391 1.024 0.391 1.414 0s0.391-1.024 0-1.414l-2.83-2.83c-0.391-0.391-1.024-0.391-1.414 0s-0.391 1.024 0 1.414zM2 13h4c0.552 0 1-0.448 1-1s-0.448-1-1-1h-4c-0.552 0-1 0.448-1 1s0.448 1 1 1zM18 13h4c0.552 0 1-0.448 1-1s-0.448-1-1-1h-4c-0.552 0-1 0.448-1 1s0.448 1 1 1zM5.637 19.777l2.83-2.83c0.391-0.391 0.391-1.024 0-1.414s-1.024-0.391-1.414 0l-2.83 2.83c-0.391 0.391-0.391 1.024 0 1.414s1.024 0.391 1.414 0zM16.947 8.467l2.83-2.83c0.391-0.391 0.391-1.024 0-1.414s-1.024-0.391-1.414 0l-2.83 2.83c-0.391 0.391-0.391 1.024 0 1.414s1.024 0.391 1.414 0z"></path>
</symbol>
<symbol id="icon-target-arrow" viewBox="0 0 32 32">
<path d="M9 23.771l-1 1v3.229h-1v-2.229l-1.293 1.293-0.707-0.707 1.357-1.357h-2.357v-1h3.357l1-1h-2.357v-1h3.357l5.322-5.322-0.678-0.678 3-1-1 3-0.614-0.614-5.386 5.386v3.229h-1v-2.229zM7.779 21c-1.125-1.726-1.779-3.786-1.779-6 0-6.075 4.925-11 11-11s11 4.925 11 11c0 6.075-4.925 11-11 11-2.214 0-4.274-0.654-6-1.779v-1.072l2.242-2.242c1.086 0.692 2.375 1.093 3.758 1.093 3.866 0 7-3.134 7-7s-3.134-7-7-7c-3.866 0-7 3.134-7 7 0 1.397 0.409 2.699 1.115 3.792l-2.208 2.208h-1.128zM15.497 18.652l-1.527 1.527c0.889 0.521 1.925 0.82 3.030 0.82 3.314 0 6-2.686 6-6s-2.686-6-6-6c-3.314 0-6 2.686-6 6 0 1.12 0.307 2.168 0.841 3.065v0l1.526-1.526-0.951-0.944 1.588-0.454c-0.002-0.047-0.003-0.094-0.003-0.142 0-1.657 1.343-3 3-3s3 1.343 3 3c0 1.657-1.343 3-3 3-0.048 0-0.095-0.001-0.142-0.003l-0.447 1.563-0.915-0.907zM17.144 16.995c1.037-0.074 1.856-0.939 1.856-1.995 0-1.105-0.895-2-2-2-1.056 0-1.921 0.818-1.995 1.856l2.995-0.856-0.856 2.995z"></path>
</symbol>
<symbol id="icon-smile" viewBox="0 0 24 24">
<path d="M23 12c0-3.037-1.232-5.789-3.222-7.778s-4.741-3.222-7.778-3.222-5.789 1.232-7.778 3.222-3.222 4.741-3.222 7.778 1.232 5.789 3.222 7.778 4.741 3.222 7.778 3.222 5.789-1.232 7.778-3.222 3.222-4.741 3.222-7.778zM21 12c0 2.486-1.006 4.734-2.636 6.364s-3.878 2.636-6.364 2.636-4.734-1.006-6.364-2.636-2.636-3.878-2.636-6.364 1.006-4.734 2.636-6.364 3.878-2.636 6.364-2.636 4.734 1.006 6.364 2.636 2.636 3.878 2.636 6.364zM7.2 14.6c0 0 0.131 0.173 0.331 0.383 0.145 0.153 0.338 0.341 0.577 0.54 0.337 0.281 0.772 0.59 1.297 0.853 0.705 0.352 1.579 0.624 2.595 0.624s1.89-0.272 2.595-0.624c0.525-0.263 0.96-0.572 1.297-0.853 0.239-0.199 0.432-0.387 0.577-0.54 0.2-0.21 0.331-0.383 0.331-0.383 0.331-0.442 0.242-1.069-0.2-1.4s-1.069-0.242-1.4 0.2c-0.041 0.050-0.181 0.206-0.181 0.206-0.1 0.105-0.237 0.239-0.408 0.382-0.243 0.203-0.549 0.419-0.91 0.6-0.48 0.239-1.050 0.412-1.701 0.412s-1.221-0.173-1.701-0.413c-0.36-0.18-0.667-0.397-0.91-0.6-0.171-0.143-0.308-0.277-0.408-0.382-0.14-0.155-0.181-0.205-0.181-0.205-0.331-0.442-0.958-0.531-1.4-0.2s-0.531 0.958-0.2 1.4zM9 10c0.552 0 1-0.448 1-1s-0.448-1-1-1-1 0.448-1 1 0.448 1 1 1zM15 10c0.552 0 1-0.448 1-1s-0.448-1-1-1-1 0.448-1 1 0.448 1 1 1z"></path>
</symbol>
<symbol id="icon-target" viewBox="0 0 32 32">
<path d="M16 27v0c-6.075 0-11-4.925-11-11s4.925-11 11-11c6.075 0 11 4.925 11 11s-4.925 11-11 11zM16 23c3.866 0 7-3.134 7-7s-3.134-7-7-7c-3.866 0-7 3.134-7 7s3.134 7 7 7v0zM16 22v0c-3.314 0-6-2.686-6-6s2.686-6 6-6c3.314 0 6 2.686 6 6s-2.686 6-6 6zM16 19c1.657 0 3-1.343 3-3s-1.343-3-3-3c-1.657 0-3 1.343-3 3s1.343 3 3 3v0zM16 18c1.105 0 2-0.895 2-2s-0.895-2-2-2c-1.105 0-2 0.895-2 2s0.895 2 2 2v0z"></path>
</symbol>
<symbol id="icon-pig" viewBox="0 0 32 32">
<path d="M24.674 21.909c0 0 3.33-2.278 3.33-6.771 0-6.688-7.088-9.161-10.899-9.095-3.812 0.067-4.948 1.070-4.948 1.070s-1.297-0.943-2.672-1.733c-1.052-0.41-1.296-0.469-2.027-0.234-0.585 0-0.217 0.974 0.018 1.325 0.233 0.351 1.366 2.29 1.366 2.29s-2.378 2.449-2.554 4.059c0-0.029-1.12-0.009-1.734-0.009s-0.556 0.669-0.556 0.669l0.017 4.714c0 0-0.038 0.669 0.519 0.669 0.556 0 1.738 0.013 1.738 0.013s1.663 2.415 2.717 2.854c0 0.029-0.911 2.503-0.911 2.503s-0.439 0.761 0.351 1.054c0.79 0.292 2.851 1.157 3.729 1.421s1.003-0.334 1.003-0.334l0.869-1.877 5.685 0.009 0.869 1.935c0 0 0.167 0.898 1.337 0.401 1.171-0.497 2.449-1.087 3.415-1.584 0.965-0.497 0.33-1.426 0.33-1.426l-0.992-1.923zM9.322 13.764c-0.533 0-0.965-0.433-0.965-0.966s0.432-0.965 0.965-0.965 0.966 0.432 0.966 0.965-0.433 0.966-0.966 0.966zM22.925 10.756c-0.308 0.365-0.509 0.096-0.757 0.023 0 0-1.051-0.975-2.595-1.43-1.599-0.47-3.282-0.243-3.282-0.243-0.248-0.073-0.549-0.081-0.551-0.464 0.013-0.473 0.587-0.477 0.58-0.493 0 0 1.894-0.175 3.479 0.291 1.559 0.458 2.75 1.454 2.75 1.454s0.637 0.439 0.376 0.862z"></path>
</symbol>
<symbol id="icon-transfer" viewBox="0 0 32 32">
<path d="M31.998 24h-24.006v4l-7.992-6 7.992-6v4h24.006zM0 12h23.998v4l8-6-8-6v4h-23.998z"></path>
</symbol>
<symbol id="icon-plus1" viewBox="0 0 32 32">
<path d="M31 12h-11v-11c0-0.552-0.447-1-1-1h-6c-0.553 0-1 0.448-1 1v11h-11c-0.553 0-1 0.448-1 1v6c0 0.553 0.447 1 1 1h11v11c0 0.553 0.447 1 1 1h6c0.553 0 1-0.447 1-1v-11h11c0.553 0 1-0.447 1-1v-6c0-0.552-0.447-1-1-1z"></path>
</symbol>
<symbol id="icon-bank" viewBox="0 0 30 28">
<path d="M15 0l15 6v2h-2c0 0.547-0.484 1-1.078 1h-23.844c-0.594 0-1.078-0.453-1.078-1h-2v-2zM4 10h4v12h2v-12h4v12h2v-12h4v12h2v-12h4v12h0.922c0.594 0 1.078 0.453 1.078 1v1h-26v-1c0-0.547 0.484-1 1.078-1h0.922v-12zM28.922 25c0.594 0 1.078 0.453 1.078 1v2h-30v-2c0-0.547 0.484-1 1.078-1h27.844z"></path>
</symbol>
<symbol id="icon-power-off" viewBox="0 0 24 28">
<path d="M24 14c0 6.609-5.391 12-12 12s-12-5.391-12-12c0-3.797 1.75-7.297 4.797-9.578 0.891-0.672 2.141-0.5 2.797 0.391 0.672 0.875 0.484 2.141-0.391 2.797-2.031 1.531-3.203 3.859-3.203 6.391 0 4.406 3.594 8 8 8s8-3.594 8-8c0-2.531-1.172-4.859-3.203-6.391-0.875-0.656-1.062-1.922-0.391-2.797 0.656-0.891 1.922-1.062 2.797-0.391 3.047 2.281 4.797 5.781 4.797 9.578zM14 2v10c0 1.094-0.906 2-2 2s-2-0.906-2-2v-10c0-1.094 0.906-2 2-2s2 0.906 2 2z"></path>
</symbol>
<symbol id="icon-credit-card" viewBox="0 0 36 28">
<path d="M0 23.5v-9.5h36v9.5c0 1.375-1.125 2.5-2.5 2.5h-31c-1.375 0-2.5-1.125-2.5-2.5zM10 20v2h6v-2h-6zM4 20v2h4v-2h-4zM33.5 2c1.375 0 2.5 1.125 2.5 2.5v3.5h-36v-3.5c0-1.375 1.125-2.5 2.5-2.5h31z"></path>
</symbol>
<symbol id="icon-home" viewBox="0 0 20 20">
<path d="M18.672 11h-1.672v6c0 0.445-0.194 1-1 1h-4v-6h-4v6h-4c-0.806 0-1-0.555-1-1v-6h-1.672c-0.598 0-0.47-0.324-0.060-0.748l8.024-8.032c0.195-0.202 0.451-0.302 0.708-0.312 0.257 0.010 0.513 0.109 0.708 0.312l8.023 8.031c0.411 0.425 0.539 0.749-0.059 0.749z"></path>
</symbol>
<symbol id="icon-wallet" viewBox="0 0 20 20">
<path d="M16 6h-12.5v-0.5l11-0.88v0.88h1.5v-1.5c0-1.1-0.891-1.872-1.979-1.717l-10.041 1.434c-1.089 0.156-1.98 1.183-1.98 2.283v10c0 1.104 0.895 2 2 2h12c1.104 0 2-0.896 2-2v-8c0-1.104-0.896-2-2-2zM14.5 13.006c-0.828 0-1.5-0.672-1.5-1.5s0.672-1.5 1.5-1.5 1.5 0.672 1.5 1.5-0.672 1.5-1.5 1.5z"></path>
</symbol>
<symbol id="icon-arrow-left" viewBox="0 0 24 24">
<path d="M12.707 18.293l-5.293-5.293h11.586c0.552 0 1-0.448 1-1s-0.448-1-1-1h-11.586l5.293-5.293c0.391-0.391 0.391-1.024 0-1.414s-1.024-0.391-1.414 0l-7 7c-0.096 0.096-0.168 0.206-0.217 0.324-0.051 0.122-0.076 0.253-0.076 0.383 0 0.256 0.098 0.512 0.293 0.707l7 7c0.391 0.391 1.024 0.391 1.414 0s0.391-1.024 0-1.414z"></path>
</symbol>
<symbol id="icon-arrow-right" viewBox="0 0 24 24">
<path d="M11.293 5.707l5.293 5.293h-11.586c-0.552 0-1 0.448-1 1s0.448 1 1 1h11.586l-5.293 5.293c-0.391 0.391-0.391 1.024 0 1.414s1.024 0.391 1.414 0l7-7c0.092-0.092 0.166-0.202 0.217-0.324 0.101-0.245 0.101-0.521 0-0.766-0.049-0.118-0.121-0.228-0.217-0.324l-7-7c-0.391-0.391-1.024-0.391-1.414 0s-0.391 1.024 0 1.414z"></path>
</symbol>
<symbol id="icon-visa" viewBox="0 0 32 32">
<path fill="#142787" style="fill: var(--color1, #142787)" d="M23.26 11.497c-0.516-0.195-1.32-0.401-2.32-0.401-2.56 0-4.367 1.291-4.38 3.14-0.016 1.36 1.285 2.125 2.268 2.581 1.009 0.467 1.347 0.76 1.344 1.18-0.007 0.636-0.807 0.924-1.549 0.924-1.021 0-1.581-0.143-2.441-0.5l-0.319-0.148-0.361 2.131c0.621 0.26 1.741 0.483 2.9 0.5 2.721 0 4.5-1.281 4.521-3.252 0.021-1.084-0.68-1.907-2.161-2.584-0.899-0.44-1.459-0.735-1.459-1.181 0-0.395 0.479-0.816 1.479-0.816 0.86-0.013 1.461 0.172 1.94 0.364l0.24 0.108 0.361-2.059zM29.904 11.271h-2c-0.623 0-1.088 0.169-1.361 0.788l-3.847 8.712h2.721l0.544-1.427 3.32 0.003c0.081 0.333 0.32 1.424 0.32 1.424h2.399zM12.88 11.191h2.591l-1.62 9.505h-2.592l1.621-9.508zM6.295 16.429l0.269 1.32 2.535-6.479h2.745l-4.081 9.487h-2.739l-2.24-8.035c-0.047-0.137-0.104-0.231-0.24-0.316-0.757-0.396-1.604-0.719-2.544-0.943l0.033-0.2h4.175c0.565 0.021 1.021 0.2 1.177 0.805l0.909 4.364zM26.705 17.399l1.033-2.659c-0.013 0.027 0.213-0.549 0.344-0.907l0.177 0.82 0.599 2.743h-2.153z"></path>
</symbol>
<symbol id="icon-mastercard" viewBox="0 0 32 32">
<path fill="#eb001b" style="fill: var(--color2, #eb001b)" d="M15.124 24.041c0.077 0.065 0.16 0.131 0.241 0.195-1.569 1.044-3.453 1.651-5.476 1.651-5.463 0.001-9.889-4.425-9.889-9.887 0-5.46 4.427-9.888 9.888-9.888 2.024 0 3.908 0.608 5.473 1.651-0.080 0.068-0.16 0.131-0.22 0.2-2.341 2.023-3.681 4.955-3.681 8.037 0 3.081 1.335 6.013 3.664 8.041zM22.112 6.112c-2.027 0-3.908 0.608-5.473 1.651 0.080 0.068 0.16 0.131 0.22 0.2 2.341 2.023 3.681 4.955 3.681 8.037 0 3.080-1.335 6.009-3.664 8.041-0.077 0.065-0.16 0.131-0.241 0.195 1.569 1.044 3.451 1.651 5.476 1.651 5.463 0.001 9.889-4.425 9.889-9.887 0-5.459-4.427-9.888-9.888-9.888zM16 8.232c-0.128 0.1-0.252 0.2-0.373 0.308-2.085 1.812-3.401 4.48-3.401 7.46 0 2.981 1.316 5.648 3.401 7.46 0.12 0.107 0.247 0.211 0.373 0.309 0.128-0.099 0.252-0.203 0.373-0.309 2.084-1.812 3.401-4.479 3.401-7.46 0-2.98-1.316-5.648-3.401-7.46-0.12-0.107-0.245-0.208-0.373-0.308z"></path>
</symbol>
</defs>
</svg>
