<svg aria-hidden="true" style="position: absolute; width: 0; height: 0; overflow: hidden;" version="1.1" xmlns="http://www.w3.org/2000/svg" xmlns:xlink="http://www.w3.org/1999/xlink">
<defs>
<symbol id="icon-utilities" viewBox="0 0 32 32">
<path d="M27.783 7.936c0.959 2.313 0.502 5.074-1.379 6.955-2.071 2.071-5.201 2.395-7.634 1.022l-1.759 1.921 1.255 1.26 0.75-0.75c0.383-0.384 1.005-0.384 1.388 0l6.082 6.144c0.384 0.383 0.384 1.005 0 1.388l-2.776 2.776c-0.383 0.384-1.005 0.384-1.388 0l-6.082-6.144c-0.384-0.383-0.384-1.005 0-1.388l0.685-0.685-1.196-1.199-8.411 9.189c-0.767 0.767-2.010 0.767-2.776 0l-0.694-0.694c-0.767-0.767-0.767-2.010 0-2.776l9.582-8.025-6.364-6.381-2.010-0.001-2.326-3.74 1.872-1.875 3.825 2.341 0.025 1.968 6.438 6.463 1.873-1.568c-1.831-2.496-1.64-6.012 0.616-8.268 1.872-1.872 4.618-2.337 6.925-1.396l-4.124 4.067 3.471 3.471 4.132-4.075zM6.15 25.934c-0.383-0.383-1.004-0.383-1.388 0-0.384 0.384-0.384 1.005 0 1.389 0.384 0.383 1.005 0.383 1.388 0 0.384-0.385 0.384-1.006 0-1.389z"></path>
</symbol>
<symbol id="icon-investment2" viewBox="0 0 32 32">
<path d="M5.998 5h-0.987v23h20v-0.963l-18.996-0.049-0.017-21.988zM8.011 25h5v-10.875l-5 5v5.875zM14.011 25h5v-9.875l-2 2-3-3v10.875zM20.011 25h5v-15.187l-5 5v10.187zM13.387 11.067l3.62 3.6 7.148-7.112 1.834 1.844-0.044-4.399-4.415 0.023 1.717 1.722-6.242 6.26-3.689-3.703-5.623 5.604 0.939 0.912 4.755-4.751z"></path>
</symbol>
<symbol id="icon-savings" viewBox="0 0 32 32">
<path d="M24.674 21.909c0 0 3.33-2.278 3.33-6.771 0-6.688-7.088-9.161-10.899-9.095-3.812 0.067-4.948 1.070-4.948 1.070s-1.297-0.943-2.672-1.733c-1.052-0.41-1.296-0.469-2.027-0.234-0.585 0-0.217 0.974 0.018 1.325 0.233 0.351 1.366 2.29 1.366 2.29s-2.378 2.449-2.554 4.059c0-0.029-1.12-0.009-1.734-0.009s-0.556 0.669-0.556 0.669l0.017 4.714c0 0-0.038 0.669 0.519 0.669 0.556 0 1.738 0.013 1.738 0.013s1.663 2.415 2.717 2.854c0 0.029-0.911 2.503-0.911 2.503s-0.439 0.761 0.351 1.054c0.79 0.292 2.851 1.157 3.729 1.421s1.003-0.334 1.003-0.334l0.869-1.877 5.685 0.009 0.869 1.935c0 0 0.167 0.898 1.337 0.401 1.171-0.497 2.449-1.087 3.415-1.584 0.965-0.497 0.33-1.426 0.33-1.426l-0.992-1.923zM9.322 13.764c-0.533 0-0.965-0.433-0.965-0.966s0.432-0.965 0.965-0.965 0.966 0.432 0.966 0.965-0.433 0.966-0.966 0.966zM22.925 10.756c-0.308 0.365-0.509 0.096-0.757 0.023 0 0-1.051-0.975-2.595-1.43-1.599-0.47-3.282-0.243-3.282-0.243-0.248-0.073-0.549-0.081-0.551-0.464 0.013-0.473 0.587-0.477 0.58-0.493 0 0 1.894-0.175 3.479 0.291 1.559 0.458 2.75 1.454 2.75 1.454s0.637 0.439 0.376 0.862z"></path>
</symbol>
<symbol id="icon-home" viewBox="0 0 24 24">
<path d="M12 3c0 0-6.186 5.34-9.643 8.232-0.203 0.184-0.357 0.452-0.357 0.768 0 0.553 0.447 1 1 1h2v7c0 0.553 0.447 1 1 1h3c0.553 0 1-0.448 1-1v-4h4v4c0 0.552 0.447 1 1 1h3c0.553 0 1-0.447 1-1v-7h2c0.553 0 1-0.447 1-1 0-0.316-0.154-0.584-0.383-0.768-3.433-2.892-9.617-8.232-9.617-8.232z"></path>
</symbol>
<symbol id="icon-flight" viewBox="0 0 24 24">
<path d="M21 15.984l-8.016-2.484v5.484l2.016 1.5v1.5l-3.516-0.984-3.469 0.984v-1.5l1.969-1.5v-5.484l-7.969 2.484v-1.969l7.969-5.016v-5.484q0-0.609 0.445-1.055t1.055-0.445 1.055 0.445 0.445 1.055v5.484l8.016 5.016v1.969z"></path>
</symbol>
<symbol id="icon-insurance" viewBox="0 0 24 24">
<path d="M12 0.984l9 4.031v6q0 4.172-2.578 7.617t-6.422 4.383q-3.844-0.938-6.422-4.383t-2.578-7.617v-6zM12 12v8.953q2.766-0.891 4.688-3.352t2.297-5.602h-6.984zM12 12v-8.813l-6.984 3.094v5.719h6.984z"></path>
</symbol>
<symbol id="icon-transportation" viewBox="0 0 24 24">
<path d="M5.016 11.016h13.969l-1.5-4.5h-10.969zM17.484 15.984q0.609 0 1.055-0.445t0.445-1.055-0.445-1.055-1.055-0.445-1.055 0.445-0.445 1.055 0.445 1.055 1.055 0.445zM6.516 15.984q0.609 0 1.055-0.445t0.445-1.055-0.445-1.055-1.055-0.445-1.055 0.445-0.445 1.055 0.445 1.055 1.055 0.445zM18.938 6l2.063 6v8.016q0 0.422-0.281 0.703t-0.703 0.281h-1.031q-0.422 0-0.703-0.281t-0.281-0.703v-1.031h-12v1.031q0 0.422-0.281 0.703t-0.703 0.281h-1.031q-0.422 0-0.703-0.281t-0.281-0.703v-8.016l2.063-6q0.281-0.984 1.453-0.984h10.969q1.172 0 1.453 0.984z"></path>
</symbol>
<symbol id="icon-cleaning" viewBox="0 0 24 24">
<path d="M12 20.016q2.484 0 4.242-1.758t1.758-4.242-1.758-4.242-4.242-1.758-4.242 1.758-1.758 4.242 1.758 4.242 4.242 1.758zM6.984 3.984q-0.422 0-0.703 0.305t-0.281 0.727 0.281 0.703 0.703 0.281 0.727-0.281 0.305-0.703-0.305-0.727-0.727-0.305zM9.984 3.984q-0.422 0-0.703 0.305t-0.281 0.727 0.281 0.703 0.703 0.281 0.727-0.281 0.305-0.703-0.305-0.727-0.727-0.305zM18 2.016q0.844 0 1.43 0.563t0.586 1.406v16.031q0 0.844-0.586 1.406t-1.43 0.563h-12q-0.844 0-1.43-0.563t-0.586-1.406v-16.031q0-0.844 0.586-1.406t1.43-0.563h12zM9.188 16.828l5.625-5.672q1.172 1.172 1.172 2.859 0 1.641-1.172 2.813t-2.813 1.172-2.813-1.172z"></path>
</symbol>
<symbol id="icon-food" viewBox="0 0 24 24">
<path d="M15.984 6q0-1.406 1.523-2.695t3.492-1.289v19.969h-2.484v-7.969h-2.531v-8.016zM11.016 9v-6.984h1.969v6.984q0 1.594-1.078 2.742t-2.672 1.242v9h-2.484v-9q-1.594-0.094-2.672-1.242t-1.078-2.742v-6.984h2.016v6.984h1.969v-6.984h2.016v6.984h2.016z"></path>
</symbol>
<symbol id="icon-school" viewBox="0 0 24 24">
<path d="M12 3l11.016 6v8.016h-2.016v-6.938l-9 4.922-11.016-6zM5.016 13.172l6.984 3.844 6.984-3.844v4.031l-6.984 3.797-6.984-3.797v-4.031z"></path>
</symbol>
<symbol id="icon-housing" viewBox="0 0 24 24">
<path d="M9.984 20.016h-4.969v-8.016h-3l9.984-9 9.984 9h-3v8.016h-4.969v-6h-4.031v6z"></path>
</symbol>
<symbol id="icon-investment" viewBox="0 0 24 24">
<path d="M15.984 6h6v6l-2.297-2.297-6.281 6.281-3.984-3.984-6 6-1.406-1.406 7.406-7.406 3.984 3.984 4.875-4.875z"></path>
</symbol>
<symbol id="icon-investment1" viewBox="0 0 24 24">
<path d="M23.016 8.016q0 0.797-0.609 1.383t-1.406 0.586h-0.047q-0.328 0-0.469-0.047l-3.563 3.563q0.094 0.281 0.094 0.516 0 0.797-0.609 1.383t-1.406 0.586-1.406-0.586-0.609-1.383q0-0.234 0.094-0.516l-2.578-2.578q-0.281 0.094-0.516 0.094t-0.516-0.094l-4.547 4.547q0.094 0.281 0.094 0.516 0 0.797-0.609 1.406t-1.406 0.609-1.406-0.609-0.609-1.406 0.609-1.383 1.406-0.586q0.375 0 0.516 0.047l4.547-4.547q-0.047-0.141-0.047-0.516 0-0.797 0.586-1.406t1.383-0.609 1.406 0.609 0.609 1.406q0 0.375-0.047 0.516l2.531 2.531q0.141-0.047 0.516-0.047t0.516 0.047l3.563-3.516q-0.094-0.281-0.094-0.516 0-0.797 0.609-1.406t1.406-0.609 1.406 0.609 0.609 1.406z"></path>
</symbol>
<symbol id="icon-apartment" viewBox="0 0 24 24">
<path d="M18.984 15v-2.016h-1.969v2.016h1.969zM18.984 18.984v-1.969h-1.969v1.969h1.969zM15 6.984v-1.969h-2.016v1.969h2.016zM15 11.016v-2.016h-2.016v2.016h2.016zM15 15v-2.016h-2.016v2.016h2.016zM11.016 6.984v-1.969h-2.016v1.969h2.016zM11.016 11.016v-2.016h-2.016v2.016h2.016zM11.016 15v-2.016h-2.016v2.016h2.016zM6.984 11.016v-2.016h-1.969v2.016h1.969zM6.984 15v-2.016h-1.969v2.016h1.969zM6.984 18.984v-1.969h-1.969v1.969h1.969zM17.016 11.016h3.984v9.984h-8.016v-3.984h-1.969v3.984h-8.016v-14.016h3.984v-3.984h10.031v8.016z"></path>
</symbol>
<symbol id="icon-entertainment" viewBox="0 0 24 24">
<path d="M15.047 5.859q0.328-0.328 0.328-0.844t-0.328-0.891l-1.594-1.594 1.078-1.078 1.594 1.594q0.797 0.891 0.797 1.969 0 1.031-0.797 1.922l-3.609 3.609-1.031-1.078zM17.063 11.859q0.891-0.797 1.922-0.797 1.078 0 1.969 0.797l1.594 1.641-1.031 1.031-1.641-1.594q-0.375-0.375-0.891-0.375-0.469 0-0.844 0.375l-1.594 1.594-1.078-1.078zM10.078 6.891q0.328-0.328 0.328-0.891t-0.328-0.891l-0.609-0.563 1.078-1.078 0.563 0.563q0.797 0.891 0.797 1.969 0 1.031-0.797 1.922l-0.563 0.609-1.078-1.078zM14.531 12.516l-1.078-1.031 5.625-5.625q0.891-0.797 1.922-0.797 1.078 0 1.969 0.797l0.563 0.609-1.031 1.078-0.609-0.609q-0.375-0.375-0.891-0.375t-0.891 0.375zM2.016 21.984l4.969-13.969 9 9z"></path>
</symbol>
<symbol id="icon-cleaning1" viewBox="0 0 24 24">
<path d="M15.984 11.016h-0.984v-8.016q0-0.844-0.586-1.43t-1.43-0.586h-1.969q-0.844 0-1.43 0.586t-0.586 1.43v8.016h-0.984q-1.406 0-2.531 0.656t-1.805 1.805-0.68 2.508v7.031h18v-7.031q0-1.359-0.68-2.508t-1.805-1.805-2.531-0.656zM18.984 21h-1.969v-3q0-0.422-0.305-0.703t-0.727-0.281q-0.375 0-0.68 0.281t-0.305 0.703v3h-2.016v-3q0-0.422-0.281-0.703t-0.703-0.281-0.703 0.281-0.281 0.703v3h-2.016v-3q0-0.422-0.305-0.703t-0.68-0.281q-0.422 0-0.727 0.281t-0.305 0.703v3h-1.969v-5.016q0-0.797 0.398-1.477t1.078-1.102 1.523-0.422h7.969q0.844 0 1.523 0.422t1.078 1.102 0.398 1.477v5.016z"></path>
</symbol>
<symbol id="icon-medical" viewBox="0 0 24 24">
<path d="M20.016 6h-4.031v-2.016q0-0.797-0.586-1.383t-1.383-0.586h-4.031q-0.797 0-1.383 0.586t-0.586 1.383v2.016h-4.031q-0.797 0-1.383 0.586t-0.586 1.43v12q0 0.797 0.586 1.383t1.383 0.586h16.031q0.797 0 1.383-0.586t0.586-1.383v-12q0-0.844-0.586-1.43t-1.383-0.586zM9.984 3.984h4.031v2.016h-4.031v-2.016zM15.984 15h-3v3h-1.969v-3h-3v-2.016h3v-3h1.969v3h3v2.016z"></path>
</symbol>
<symbol id="icon-personal" viewBox="0 0 24 24">
<path d="M12 15c0 0-8 0-11 7 0 0 5.010 2 11 2s11-2 11-2c-3-7-11-7-11-7zM12 14c3 0 5-3 5-8s-5-5-5-5-5 0-5 5 2 8 5 8z"></path>
</symbol>
<symbol id="icon-gift" viewBox="0 0 24 28">
<path d="M14.5 21.187v-11.188h-5v11.188c0 0.547 0.453 0.812 1 0.812h3c0.547 0 1-0.266 1-0.812zM7.375 8h3.047l-1.969-2.516c-0.172-0.203-0.547-0.484-1.078-0.484-0.828 0-1.5 0.672-1.5 1.5s0.672 1.5 1.5 1.5zM18.125 6.5c0-0.828-0.672-1.5-1.5-1.5-0.531 0-0.906 0.281-1.078 0.484l-1.953 2.516h3.031c0.828 0 1.5-0.672 1.5-1.5zM24 10.5v5c0 0.281-0.219 0.5-0.5 0.5h-1.5v6.5c0 0.828-0.672 1.5-1.5 1.5h-17c-0.828 0-1.5-0.672-1.5-1.5v-6.5h-1.5c-0.281 0-0.5-0.219-0.5-0.5v-5c0-0.281 0.219-0.5 0.5-0.5h6.875c-1.937 0-3.5-1.563-3.5-3.5s1.563-3.5 3.5-3.5c1.047 0 2.016 0.438 2.625 1.203l2 2.578 2-2.578c0.609-0.766 1.578-1.203 2.625-1.203 1.937 0 3.5 1.563 3.5 3.5s-1.563 3.5-3.5 3.5h6.875c0.281 0 0.5 0.219 0.5 0.5z"></path>
</symbol>
<symbol id="icon-education" viewBox="0 0 20 20">
<path d="M3.302 12.238c0.464 1.879 1.054 2.701 3.022 3.562 1.969 0.86 2.904 1.8 3.676 1.8s1.648-0.822 3.616-1.684c1.969-0.861 1.443-1.123 1.907-3.002l-5.523 2.686-6.698-3.362zM19.511 7.336l-8.325-4.662c-0.652-0.365-1.72-0.365-2.372 0l-8.326 4.662c-0.652 0.365-0.652 0.963 0 1.328l8.325 4.662c0.652 0.365 1.72 0.365 2.372 0l5.382-3.014-5.836-1.367c-0.225 0.055-0.472 0.086-0.731 0.086-1.052 0-1.904-0.506-1.904-1.131 0-0.627 0.853-1.133 1.904-1.133 0.816 0 1.51 0.307 1.78 0.734l6.182 2.029 1.549-0.867c0.651-0.364 0.651-0.962 0-1.327zM16.967 16.17c-0.065 0.385 1.283 1.018 1.411-0.107 0.579-5.072-0.416-6.531-0.416-6.531l-1.395 0.781c0-0.001 1.183 1.125 0.4 5.857z"></path>
</symbol>
<symbol id="icon-miscellaneous" viewBox="0 0 24 24">
<path d="M12 18q2.484 0 4.242-1.758t1.758-4.242-1.758-4.242-4.242-1.758-4.242 1.758-1.758 4.242 1.758 4.242 4.242 1.758zM2.016 12q0-4.125 2.93-7.055t7.055-2.93 7.055 2.93 2.93 7.055-2.93 7.055-7.055 2.93-7.055-2.93-2.93-7.055z"></path>
</symbol>
<symbol id="icon-clothing" viewBox="0 0 20 20">
<path d="M7 0h-1l-6 3v6l4-1v12h12v-12l4 1v-6l-6-3h-1c0 1.657-1.343 3-3 3s-3-1.343-3-3v0z"></path>
</symbol>
</defs>
</svg>
